<svg width="250" height="250" fill="none" xmlns="http://www.w3.org/2000/svg">
  <style>
    #template{ fill: #000 }
    @media (prefers-color-scheme: dark) {
      #template{ fill: #FFF }
    }
  </style>
  <path fill="#41B883" d="M8.008 18 125 232.805 241.994 18h-46.797l-70.196 128.883L54.221 18H8.007Z"/>
  <path fill="#35495E" d="M54.219 18 125 147.506 195.196 18h-43.288L125 67.81 97.506 18H54.22Z"/>
  <path id="template" d="M226.562 155.833v14.557h-78.124v-14.557h78.124Zm0-7.278h-78.124c-2.073 0-4.06.767-5.525 2.131-1.465 1.365-2.288 3.217-2.288 5.147v14.557c0 1.93.823 3.781 2.288 5.146 1.465 1.365 3.452 2.132 5.525 2.132h78.124c2.073 0 4.06-.767 5.525-2.132 1.465-1.365 2.288-3.216 2.288-5.146v-14.557c0-1.93-.823-3.782-2.288-5.147-1.465-1.364-3.452-2.131-5.525-2.131Zm-62.5 43.67v36.391h-15.624v-36.391h15.624Zm0-7.279h-15.624c-2.073 0-4.06.767-5.525 2.132-1.465 1.365-2.288 3.216-2.288 5.147v36.391c0 1.93.823 3.782 2.288 5.147 1.465 1.365 3.452 2.131 5.525 2.131h15.624c2.073 0 4.06-.766 5.525-2.131 1.465-1.365 2.288-3.217 2.288-5.147v-36.391c0-1.931-.823-3.782-2.288-5.147-1.465-1.365-3.452-2.132-5.525-2.132Zm62.5 7.279v36.391H187.5v-36.391h39.062Zm0-7.279H187.5c-2.072 0-4.059.767-5.524 2.132-1.465 1.365-2.288 3.216-2.288 5.147v36.391c0 1.93.823 3.782 2.288 5.147 1.465 1.365 3.452 2.131 5.524 2.131h39.062c2.073 0 4.06-.766 5.525-2.131 1.465-1.365 2.288-3.217 2.288-5.147v-36.391c0-1.931-.823-3.782-2.288-5.147-1.465-1.365-3.452-2.132-5.525-2.132Z"/>
</svg>